<svg width="11" height="18" viewBox="0 0 11 18" fill="none" xmlns="http://www.w3.org/2000/svg">
<path d="M2.94189 17.3917L10.2252 10.1084C10.3836 9.95006 10.4955 9.77853 10.5609 9.59381C10.6274 9.40908 10.6606 9.21117 10.6606 9.00006C10.6606 8.78895 10.6274 8.59103 10.5609 8.40631C10.4955 8.22158 10.3836 8.05006 10.2252 7.89172L2.94189 0.60839C2.65162 0.318112 2.28217 0.172974 1.83356 0.172974C1.38495 0.172974 1.01551 0.318112 0.725227 0.60839C0.43495 0.898667 0.28981 1.26811 0.28981 1.71672C0.28981 2.16533 0.43495 2.53478 0.725227 2.82506L6.90023 9.00006L0.725227 15.1751C0.43495 15.4653 0.28981 15.8348 0.28981 16.2834C0.28981 16.732 0.43495 17.1014 0.725227 17.3917C1.01551 17.682 1.38495 17.8271 1.83356 17.8271C2.28217 17.8271 2.65162 17.682 2.94189 17.3917Z" fill="black"/>
</svg>
