<svg width="11" height="18" viewBox="0 0 11 18" fill="none" xmlns="http://www.w3.org/2000/svg">
<path d="M8.05811 17.3917L0.774772 10.1083C0.616438 9.94999 0.504549 9.77847 0.439105 9.59375C0.372605 9.40902 0.339355 9.21111 0.339355 9C0.339355 8.78888 0.372605 8.59097 0.439105 8.40625C0.504549 8.22152 0.616438 8.05 0.774772 7.89166L8.05811 0.608329C8.34838 0.318051 8.71783 0.172913 9.16644 0.172913C9.61505 0.172913 9.98449 0.318051 10.2748 0.608329C10.5651 0.898606 10.7102 1.26805 10.7102 1.71666C10.7102 2.16527 10.5651 2.53472 10.2748 2.825L4.09977 9L10.2748 15.175C10.5651 15.4653 10.7102 15.8347 10.7102 16.2833C10.7102 16.7319 10.5651 17.1014 10.2748 17.3917C9.98449 17.6819 9.61505 17.8271 9.16644 17.8271C8.71783 17.8271 8.34838 17.6819 8.05811 17.3917Z" fill="black"/>
</svg>
