<svg width="71" height="86" viewBox="0 0 71 86" fill="none" xmlns="http://www.w3.org/2000/svg">
<path d="M28.2031 15.12L23.0031 14.6C23.8431 11.32 23.9631 8.84 23.9631 6.4H3.72313V2.24H29.2431V5.28C29.2431 8.2 29.2431 11.32 28.2031 15.12ZM16.3631 33.48C21.3631 33.48 24.2031 32.48 24.2031 30.52C24.2031 28.52 21.3631 27.52 16.3631 27.52C11.4031 27.52 8.56313 28.52 8.56313 30.52C8.56313 32.48 11.4031 33.48 16.3631 33.48ZM16.3631 23.56C24.3231 23.56 29.4431 26.2 29.4431 30.52C29.4431 34.8 24.3231 37.44 16.3631 37.44C8.44313 37.44 3.32313 34.8 3.32313 30.52C3.32313 26.2 8.44313 23.56 16.3631 23.56ZM17.5631 17.08H33.1631V21.24H0.00312507V17.08H12.2831V10.64H17.5631V17.08ZM38.04 3.36H55.76C55.76 13.36 49.6 20.28 38.64 23.44L36.44 19.24C44.64 17 49.2 12.72 50.04 7.56H38.04V3.36ZM47.2 24.32V32.6H66.96V36.8H41.92V24.32H47.2ZM65.68 10.88H70.6V15.2H65.68V26.96H60.4V0.599998H65.68V10.88ZM20.5231 63.76L21.0831 67.88C16.1631 68.76 11.6831 68.92 4.36313 68.92H1.28313V50.72H18.5631V54.92H6.52313V57.72H17.8031V61.8H6.52313V64.76C12.4431 64.72 16.2431 64.56 20.5231 63.76ZM10.1631 75.88V80.88H23.7631V75.88H10.1631ZM4.96313 85V71.72H28.9231V85H4.96313ZM33.8031 57.24V61.56H28.9231V70.16H23.6431V48.64H28.9231V57.24H33.8031ZM55.28 65.08L52.48 69.08C49.4 67.8 47.28 65.6 46 62.88C44.64 66 42.4 68.6 39 70.08L36.2 65.96C41.36 63.68 43.36 59.12 43.36 54.92V50.64H48.44V54.92C48.44 59 50.4 63.04 55.28 65.08ZM42.76 76.76V72.6H68.12V85.48H62.84V76.76H42.76ZM63.12 48.6H68.12V70.96H63.12V61.8H60.24V70.76H55.32V49.16H60.24V57.56H63.12V48.6Z" fill="black"/>
</svg>
