<svg width="94" height="104" viewBox="0 0 94 104" fill="none" xmlns="http://www.w3.org/2000/svg">
<path d="M20.88 0.247998H26.832V8.072H20.88V0.247998ZM20.88 28.712H26.832V41.528H20.88V28.712ZM15.744 9.272H21.696C20.832 17.576 18.432 22.856 5.808 25.592C5.328 24.152 3.936 21.848 2.736 20.696C13.584 18.824 15.072 15.32 15.744 9.272ZM26.256 9.176H31.968V17.432C31.968 18.728 32.256 18.872 33.696 18.872C34.368 18.872 37.152 18.872 38.016 18.872C39.216 18.872 39.456 18.392 39.648 15.416C40.752 16.232 43.056 17.048 44.592 17.384C43.968 22.424 42.48 23.768 38.592 23.768C37.44 23.768 33.936 23.768 32.88 23.768C27.456 23.768 26.256 22.28 26.256 17.432V9.176ZM3.408 4.568H44.688V14.552H38.736V9.752H9.072V15.416H3.408V4.568ZM7.968 26.456H41.04V31.592H7.968V26.456ZM2.88 38.84H45.072V44.024H2.88V38.84ZM65.376 29.528H78.528V33.656H65.376V29.528ZM65.04 22.424H81.216V40.856H65.04V36.632H75.84V26.648H65.04V22.424ZM62.688 22.424H67.872V43.304H62.688V22.424ZM54.624 8.744H66.672V12.632H54.624V8.744ZM76.896 8.744H89.04V12.632H76.896V8.744ZM86.688 2.072H92.496V38.504C92.496 41.624 91.872 43.304 89.952 44.264C88.032 45.224 85.248 45.32 81.12 45.32C80.88 43.688 80.016 41 79.248 39.464C81.744 39.608 84.672 39.56 85.536 39.56C86.4 39.56 86.688 39.272 86.688 38.456V2.072ZM55.104 2.072H70.272V19.496H55.104V15.368H64.896V6.248H55.104V2.072ZM89.76 2.072V6.248H79.008V15.512H89.76V19.64H73.536V2.072H89.76ZM51.792 2.072H57.504V45.32H51.792V2.072ZM17.088 83.16H45.84V88.296H17.088V83.16ZM32.496 66.456H37.632V73.416C37.632 74.568 37.776 74.712 38.64 74.712C39.024 74.712 40.56 74.712 40.992 74.712C41.808 74.712 42 74.232 42.096 71.064C43.104 71.832 45.216 72.6 46.608 72.936C46.08 77.928 44.784 79.272 41.616 79.272C40.752 79.272 38.592 79.272 37.776 79.272C33.36 79.272 32.496 77.784 32.496 73.464V66.456ZM17.52 60.456H45.696V70.056H40.608V65.352H22.416V70.296H17.52V60.456ZM28.464 78.408H34.128V103.272H28.464V78.408ZM24.768 66.504H30C29.568 73.848 28.032 78.12 19.296 80.376C18.816 79.128 17.52 77.208 16.512 76.296C23.568 74.712 24.48 71.928 24.768 66.504ZM35.568 85.656C37.968 90.12 42.624 94.632 47.232 96.984C46.032 98.04 44.256 100.056 43.344 101.448C38.544 98.424 33.936 92.904 31.2 87.288L35.568 85.656ZM27.216 85.176L31.68 86.664C28.752 93.096 23.664 98.808 17.76 101.832C16.944 100.536 15.312 98.52 14.112 97.464C19.632 95.112 24.72 90.312 27.216 85.176ZM0.96 82.392C4.8 81.528 10.512 79.992 15.936 78.456L16.704 83.64C11.76 85.176 6.48 86.712 2.256 87.912L0.96 82.392ZM1.728 67.368H16.416V72.648H1.728V67.368ZM6.816 58.296H12.096V97.224C12.096 99.912 11.616 101.4 10.128 102.264C8.688 103.176 6.624 103.368 3.504 103.368C3.36 101.928 2.688 99.576 2.016 97.992C3.744 98.088 5.424 98.088 6 98.04C6.576 98.04 6.816 97.896 6.816 97.224V58.296ZM68.976 90.216H74.688V103.32H68.976V90.216ZM68.928 58.248H74.64V72.072H68.928V58.248ZM67.632 72.936L72.864 75.384C69.984 77.976 66.672 80.568 64.032 82.248L60 80.088C62.544 78.216 65.808 75.192 67.632 72.936ZM78.048 76.008L83.184 78.792C77.232 83.256 69.456 88.104 63.36 91.176L59.568 88.536C65.712 85.368 73.392 80.136 78.048 76.008ZM55.776 81L59.52 77.784C62.976 79.464 67.584 82.152 69.936 84.168L65.904 87.768C63.792 85.752 59.328 82.872 55.776 81ZM78.288 84.792L82.08 81.864C85.872 84.264 90.96 87.864 93.504 90.36L89.472 93.672C87.12 91.224 82.176 87.336 78.288 84.792ZM77.424 95.16L81.84 92.28C85.584 94.248 90.864 97.368 93.648 99.576L88.896 102.84C86.496 100.632 81.36 97.368 77.424 95.16ZM50.928 87.384C59.904 87.432 74.544 87.288 88.272 87.096L87.984 91.464C74.784 91.944 60.624 92.376 51.216 92.568L50.928 87.384ZM60.72 92.424L66.192 94.488C63.072 97.752 58.176 101.064 54.096 102.984C53.088 101.88 50.976 99.912 49.68 98.952C53.808 97.464 58.176 94.968 60.72 92.424ZM51.456 61.992H92.4V66.936H51.456V61.992ZM51.072 69.864H92.976V79.848H87.312V74.712H56.496V79.848H51.072V69.864Z" fill="black"/>
</svg>
