<svg width="30" height="30" viewBox="0 0 30 30" fill="none" xmlns="http://www.w3.org/2000/svg">
<path d="M22.9782 26.0022C21.9861 24.891 20.7701 24.0022 19.4102 23.3943C18.0503 22.7865 16.5771 22.4732 15.0875 22.475C11.9521 22.475 9.13579 23.8363 7.19676 26.0022M15.0875 28.525C13.2999 28.525 11.5297 28.1729 9.8782 27.4888C8.22665 26.8047 6.72603 25.8021 5.46199 24.5381C4.19794 23.274 3.19526 21.7734 2.51116 20.1219C1.82707 18.4703 1.47498 16.7002 1.47498 14.9125C1.47498 13.1249 1.82707 11.3548 2.51116 9.70327C3.19526 8.05173 4.19794 6.5511 5.46199 5.28706C6.72603 4.02302 8.22665 3.02034 9.8782 2.33623C11.5297 1.65214 13.2999 1.30005 15.0875 1.30005C18.6977 1.30005 22.1601 2.73422 24.713 5.28706C27.2658 7.8399 28.7 11.3023 28.7 14.9125C28.7 18.5227 27.2658 21.9852 24.713 24.5381C22.1601 27.0909 18.6977 28.525 15.0875 28.525ZM15.0875 17.9375C14.4916 17.9375 13.9015 17.8202 13.351 17.5921C12.8006 17.3642 12.3004 17.0299 11.879 16.6085C11.4576 16.1871 11.1234 15.6869 10.8954 15.1366C10.6673 14.586 10.55 13.996 10.55 13.4C10.55 12.8041 10.6673 12.2141 10.8954 11.6636C11.1234 11.1131 11.4576 10.6129 11.879 10.1916C12.3004 9.7702 12.8006 9.43598 13.351 9.20794C13.9015 8.97992 14.4916 8.86255 15.0875 8.86255C16.2908 8.86255 17.445 9.34061 18.2959 10.1916C19.1469 11.0425 19.625 12.1967 19.625 13.4C19.625 14.6034 19.1469 15.7576 18.2959 16.6085C17.445 17.4594 16.2908 17.9375 15.0875 17.9375Z" stroke="#171F31" stroke-width="2" stroke-linecap="round" stroke-linejoin="round"/>
</svg>
