<svg width="21" height="27" viewBox="0 0 21 27" fill="none" xmlns="http://www.w3.org/2000/svg">
<path d="M1.75 6.50004V20.3323C1.75 22.3171 1.75 23.3102 2.0475 23.9169C2.31664 24.4658 2.75147 24.9163 3.29054 25.2048C3.82961 25.4931 4.44567 25.6048 5.05167 25.524C5.7225 25.4365 6.54792 24.8852 8.19875 23.7842L8.20313 23.7813C8.85792 23.3438 9.18458 23.1265 9.52729 23.0055C10.1563 22.7832 10.8423 22.7832 11.4713 23.0055C11.814 23.1265 12.1421 23.3452 12.7998 23.7842C14.4521 24.8852 15.279 25.435 15.9498 25.524C16.5556 25.6045 17.1713 25.4926 17.71 25.2042C18.2489 24.9159 18.6834 24.4655 18.9525 23.9169C19.25 23.3102 19.25 22.3171 19.25 20.3323V6.49567C19.25 4.86525 19.25 4.04858 18.9321 3.42587C18.6519 2.87693 18.2052 2.43075 17.656 2.15129C17.0333 1.83337 16.2167 1.83337 14.5833 1.83337H6.41667C4.78333 1.83337 3.96667 1.83337 3.3425 2.15129C2.79366 2.43084 2.34746 2.87703 2.06792 3.42587C1.75 4.05004 1.75 4.86671 1.75 6.50004Z" stroke="black" stroke-width="2" stroke-linecap="round" stroke-linejoin="round"/>
</svg>
