<svg width="32" height="32" viewBox="0 0 32 32" fill="none" xmlns="http://www.w3.org/2000/svg">
<path d="M20.4425 19.1733L20.4861 19.2153H20.5467H21.5377L27.147 24.8511L27.1473 24.8514C27.6354 25.3395 27.6354 26.1378 27.1473 26.6259C26.6592 27.114 25.8608 27.114 25.3727 26.6259L19.75 21.0032V20.012V19.9514L19.708 19.9078L19.348 19.5345L19.2496 19.4325L19.1421 19.5249C18.1909 20.3438 17.0703 20.9422 15.8608 21.2775C14.6512 21.6127 13.3825 21.6765 12.1454 21.4641L12.145 21.4641C8.50365 20.8484 5.59421 17.8078 5.14891 14.1405L5.14882 14.1398C4.98564 12.85 5.11969 11.5399 5.5407 10.3099C5.96172 9.07987 6.65854 7.96244 7.57784 7.04314C8.49715 6.12383 9.61457 5.42701 10.8446 5.006C12.0746 4.58499 13.3847 4.45094 14.6745 4.61411L14.6753 4.6142C18.3425 5.05951 21.3831 7.96895 21.9988 11.6103L21.9988 11.6107C22.2112 12.8478 22.1474 14.1165 21.8122 15.3261C21.4769 16.5356 20.8785 17.6562 20.0597 18.6074L19.9672 18.7149L20.0692 18.8133L20.4425 19.1733ZM7.45 13.0653C7.45 16.4681 10.1972 19.2153 13.6 19.2153C17.0028 19.2153 19.75 16.4681 19.75 13.0653C19.75 9.66245 17.0028 6.9153 13.6 6.9153C10.1972 6.9153 7.45 9.66245 7.45 13.0653Z" fill="black" stroke="white" stroke-width="0.3"/>
</svg>
